<mxfile host="app.diagrams.net" agent="Mozilla/5.0 (Macintosh; Intel Mac OS X 10_15_7) AppleWebKit/537.36 (KHTML, like Gecko) Chrome/126.0.0.0 Whale/3.27.254.15 Safari/537.36" version="24.7.16">
  <diagram name="페이지-1" id="8g5Zn0wMJFjncriXSSx3">
    <mxGraphModel dx="524" dy="995" grid="1" gridSize="10" guides="1" tooltips="1" connect="1" arrows="1" fold="1" page="1" pageScale="1" pageWidth="1169" pageHeight="827" math="0" shadow="0">
      <root>
        <mxCell id="0" />
        <mxCell id="1" parent="0" />
        <mxCell id="tBd24EuEEKGatbLrbpey-3" style="edgeStyle=orthogonalEdgeStyle;rounded=0;orthogonalLoop=1;jettySize=auto;html=1;entryX=0;entryY=0.5;entryDx=0;entryDy=0;" edge="1" parent="1" source="pKS4B4EWEE2jMQGI_RAB-52" target="pKS4B4EWEE2jMQGI_RAB-54">
          <mxGeometry relative="1" as="geometry" />
        </mxCell>
        <mxCell id="pKS4B4EWEE2jMQGI_RAB-52" value="&lt;div&gt;&lt;font&gt;input-topic&lt;/font&gt;&lt;/div&gt;" style="rounded=0;whiteSpace=wrap;html=1;strokeColor=#000000;fontColor=#000000;" parent="1" vertex="1">
          <mxGeometry x="80" y="160" width="120" height="40" as="geometry" />
        </mxCell>
        <mxCell id="tBd24EuEEKGatbLrbpey-4" style="edgeStyle=orthogonalEdgeStyle;rounded=0;orthogonalLoop=1;jettySize=auto;html=1;entryX=0;entryY=0.5;entryDx=0;entryDy=0;" edge="1" parent="1" source="pKS4B4EWEE2jMQGI_RAB-54" target="tBd24EuEEKGatbLrbpey-1">
          <mxGeometry relative="1" as="geometry" />
        </mxCell>
        <mxCell id="pKS4B4EWEE2jMQGI_RAB-54" value="process" style="ellipse;whiteSpace=wrap;html=1;strokeColor=#000000;fontColor=#000000;" parent="1" vertex="1">
          <mxGeometry x="240" y="155" width="80" height="50" as="geometry" />
        </mxCell>
        <mxCell id="Bi6lJuceC_sSA9WiSDit-1" style="edgeStyle=orthogonalEdgeStyle;rounded=0;orthogonalLoop=1;jettySize=auto;html=1;entryX=0;entryY=0.5;entryDx=0;entryDy=0;" parent="1" source="Bi6lJuceC_sSA9WiSDit-2" target="Bi6lJuceC_sSA9WiSDit-4" edge="1">
          <mxGeometry relative="1" as="geometry" />
        </mxCell>
        <mxCell id="Bi6lJuceC_sSA9WiSDit-2" value="voter1: a" style="text;html=1;align=center;verticalAlign=middle;whiteSpace=wrap;rounded=0;fontColor=#000000;" parent="1" vertex="1">
          <mxGeometry x="80" y="251" width="80" height="30" as="geometry" />
        </mxCell>
        <mxCell id="tBd24EuEEKGatbLrbpey-12" style="edgeStyle=orthogonalEdgeStyle;rounded=0;orthogonalLoop=1;jettySize=auto;html=1;entryX=0;entryY=0.5;entryDx=0;entryDy=0;" edge="1" parent="1" source="Bi6lJuceC_sSA9WiSDit-4" target="tBd24EuEEKGatbLrbpey-6">
          <mxGeometry relative="1" as="geometry" />
        </mxCell>
        <mxCell id="Bi6lJuceC_sSA9WiSDit-4" value="record voter1-a, partition : 0" style="text;html=1;align=center;verticalAlign=middle;whiteSpace=wrap;rounded=0;fontColor=#000000;" parent="1" vertex="1">
          <mxGeometry x="220" y="251" width="150" height="30" as="geometry" />
        </mxCell>
        <mxCell id="Bi6lJuceC_sSA9WiSDit-6" style="edgeStyle=orthogonalEdgeStyle;rounded=0;orthogonalLoop=1;jettySize=auto;html=1;entryX=0;entryY=0.5;entryDx=0;entryDy=0;" parent="1" source="Bi6lJuceC_sSA9WiSDit-7" target="Bi6lJuceC_sSA9WiSDit-9" edge="1">
          <mxGeometry relative="1" as="geometry" />
        </mxCell>
        <mxCell id="Bi6lJuceC_sSA9WiSDit-7" value="voter2: b" style="text;html=1;align=center;verticalAlign=middle;whiteSpace=wrap;rounded=0;fontColor=#000000;" parent="1" vertex="1">
          <mxGeometry x="80" y="290" width="80" height="30" as="geometry" />
        </mxCell>
        <mxCell id="tBd24EuEEKGatbLrbpey-14" style="edgeStyle=orthogonalEdgeStyle;rounded=0;orthogonalLoop=1;jettySize=auto;html=1;entryX=0;entryY=0.5;entryDx=0;entryDy=0;" edge="1" parent="1" source="Bi6lJuceC_sSA9WiSDit-9" target="tBd24EuEEKGatbLrbpey-7">
          <mxGeometry relative="1" as="geometry" />
        </mxCell>
        <mxCell id="Bi6lJuceC_sSA9WiSDit-9" value="&lt;div&gt;record voter2-b, partition : 0&lt;/div&gt;" style="text;html=1;align=center;verticalAlign=middle;whiteSpace=wrap;rounded=0;fontColor=#000000;" parent="1" vertex="1">
          <mxGeometry x="220" y="290" width="150" height="30" as="geometry" />
        </mxCell>
        <mxCell id="Bi6lJuceC_sSA9WiSDit-11" style="edgeStyle=orthogonalEdgeStyle;rounded=0;orthogonalLoop=1;jettySize=auto;html=1;entryX=0;entryY=0.5;entryDx=0;entryDy=0;" parent="1" source="Bi6lJuceC_sSA9WiSDit-12" target="Bi6lJuceC_sSA9WiSDit-14" edge="1">
          <mxGeometry relative="1" as="geometry" />
        </mxCell>
        <mxCell id="Bi6lJuceC_sSA9WiSDit-12" value="voter3: c" style="text;html=1;align=center;verticalAlign=middle;whiteSpace=wrap;rounded=0;fontColor=#000000;" parent="1" vertex="1">
          <mxGeometry x="80" y="335" width="80" height="30" as="geometry" />
        </mxCell>
        <mxCell id="tBd24EuEEKGatbLrbpey-15" style="edgeStyle=orthogonalEdgeStyle;rounded=0;orthogonalLoop=1;jettySize=auto;html=1;entryX=0;entryY=0.5;entryDx=0;entryDy=0;" edge="1" parent="1" source="Bi6lJuceC_sSA9WiSDit-14" target="tBd24EuEEKGatbLrbpey-8">
          <mxGeometry relative="1" as="geometry" />
        </mxCell>
        <mxCell id="Bi6lJuceC_sSA9WiSDit-14" value="&lt;div&gt;record voter3-c, partition : 0&lt;/div&gt;" style="text;html=1;align=center;verticalAlign=middle;whiteSpace=wrap;rounded=0;fontColor=#000000;" parent="1" vertex="1">
          <mxGeometry x="220" y="335" width="150" height="30" as="geometry" />
        </mxCell>
        <mxCell id="Bi6lJuceC_sSA9WiSDit-16" style="edgeStyle=orthogonalEdgeStyle;rounded=0;orthogonalLoop=1;jettySize=auto;html=1;entryX=0;entryY=0.5;entryDx=0;entryDy=0;" parent="1" source="Bi6lJuceC_sSA9WiSDit-17" target="Bi6lJuceC_sSA9WiSDit-19" edge="1">
          <mxGeometry relative="1" as="geometry" />
        </mxCell>
        <mxCell id="Bi6lJuceC_sSA9WiSDit-17" value="voter4: d" style="text;html=1;align=center;verticalAlign=middle;whiteSpace=wrap;rounded=0;fontColor=#000000;" parent="1" vertex="1">
          <mxGeometry x="80" y="377" width="80" height="30" as="geometry" />
        </mxCell>
        <mxCell id="tBd24EuEEKGatbLrbpey-16" style="edgeStyle=orthogonalEdgeStyle;rounded=0;orthogonalLoop=1;jettySize=auto;html=1;entryX=0;entryY=0.5;entryDx=0;entryDy=0;" edge="1" parent="1" source="Bi6lJuceC_sSA9WiSDit-19" target="tBd24EuEEKGatbLrbpey-9">
          <mxGeometry relative="1" as="geometry" />
        </mxCell>
        <mxCell id="Bi6lJuceC_sSA9WiSDit-19" value="&lt;div&gt;record voter4-d, partition : 0&lt;/div&gt;" style="text;html=1;align=center;verticalAlign=middle;whiteSpace=wrap;rounded=0;fontColor=#000000;" parent="1" vertex="1">
          <mxGeometry x="220" y="377" width="150" height="30" as="geometry" />
        </mxCell>
        <mxCell id="Bi6lJuceC_sSA9WiSDit-21" style="edgeStyle=orthogonalEdgeStyle;rounded=0;orthogonalLoop=1;jettySize=auto;html=1;entryX=0;entryY=0.5;entryDx=0;entryDy=0;" parent="1" source="Bi6lJuceC_sSA9WiSDit-22" target="Bi6lJuceC_sSA9WiSDit-24" edge="1">
          <mxGeometry relative="1" as="geometry" />
        </mxCell>
        <mxCell id="Bi6lJuceC_sSA9WiSDit-22" value="voter5: e" style="text;html=1;align=center;verticalAlign=middle;whiteSpace=wrap;rounded=0;fontColor=#000000;" parent="1" vertex="1">
          <mxGeometry x="80" y="413" width="80" height="30" as="geometry" />
        </mxCell>
        <mxCell id="tBd24EuEEKGatbLrbpey-17" style="edgeStyle=orthogonalEdgeStyle;rounded=0;orthogonalLoop=1;jettySize=auto;html=1;" edge="1" parent="1" source="Bi6lJuceC_sSA9WiSDit-24" target="tBd24EuEEKGatbLrbpey-10">
          <mxGeometry relative="1" as="geometry" />
        </mxCell>
        <mxCell id="Bi6lJuceC_sSA9WiSDit-24" value="&lt;div&gt;record voter5-e, partition : 0&lt;/div&gt;" style="text;html=1;align=center;verticalAlign=middle;whiteSpace=wrap;rounded=0;fontColor=#000000;" parent="1" vertex="1">
          <mxGeometry x="220" y="413" width="150" height="30" as="geometry" />
        </mxCell>
        <mxCell id="Bi6lJuceC_sSA9WiSDit-26" style="edgeStyle=orthogonalEdgeStyle;rounded=0;orthogonalLoop=1;jettySize=auto;html=1;entryX=0;entryY=0.5;entryDx=0;entryDy=0;" parent="1" source="Bi6lJuceC_sSA9WiSDit-27" target="Bi6lJuceC_sSA9WiSDit-29" edge="1">
          <mxGeometry relative="1" as="geometry" />
        </mxCell>
        <mxCell id="Bi6lJuceC_sSA9WiSDit-27" value="voter6: f" style="text;html=1;align=center;verticalAlign=middle;whiteSpace=wrap;rounded=0;fontColor=#000000;" parent="1" vertex="1">
          <mxGeometry x="80" y="453" width="80" height="30" as="geometry" />
        </mxCell>
        <mxCell id="tBd24EuEEKGatbLrbpey-18" style="edgeStyle=orthogonalEdgeStyle;rounded=0;orthogonalLoop=1;jettySize=auto;html=1;entryX=0;entryY=0.5;entryDx=0;entryDy=0;" edge="1" parent="1" source="Bi6lJuceC_sSA9WiSDit-29" target="tBd24EuEEKGatbLrbpey-11">
          <mxGeometry relative="1" as="geometry" />
        </mxCell>
        <mxCell id="Bi6lJuceC_sSA9WiSDit-29" value="&lt;div&gt;record voter6-f, partition : 0&lt;/div&gt;" style="text;html=1;align=center;verticalAlign=middle;whiteSpace=wrap;rounded=0;fontColor=#000000;" parent="1" vertex="1">
          <mxGeometry x="220" y="453" width="150" height="30" as="geometry" />
        </mxCell>
        <mxCell id="tBd24EuEEKGatbLrbpey-5" style="edgeStyle=orthogonalEdgeStyle;rounded=0;orthogonalLoop=1;jettySize=auto;html=1;entryX=0;entryY=0.5;entryDx=0;entryDy=0;" edge="1" parent="1" source="tBd24EuEEKGatbLrbpey-1" target="tBd24EuEEKGatbLrbpey-2">
          <mxGeometry relative="1" as="geometry" />
        </mxCell>
        <mxCell id="tBd24EuEEKGatbLrbpey-1" value="repartition" style="ellipse;whiteSpace=wrap;html=1;strokeColor=#000000;fontColor=#000000;" vertex="1" parent="1">
          <mxGeometry x="360" y="155" width="80" height="50" as="geometry" />
        </mxCell>
        <mxCell id="tBd24EuEEKGatbLrbpey-2" value="process" style="ellipse;whiteSpace=wrap;html=1;strokeColor=#000000;fontColor=#000000;" vertex="1" parent="1">
          <mxGeometry x="480" y="155" width="80" height="50" as="geometry" />
        </mxCell>
        <mxCell id="tBd24EuEEKGatbLrbpey-6" value="record voter1-a, partition : 0" style="text;html=1;align=center;verticalAlign=middle;whiteSpace=wrap;rounded=0;fontColor=#000000;" vertex="1" parent="1">
          <mxGeometry x="445" y="251" width="150" height="30" as="geometry" />
        </mxCell>
        <mxCell id="tBd24EuEEKGatbLrbpey-7" value="&lt;div&gt;record voter2-b, partition : 2&lt;/div&gt;" style="text;html=1;align=center;verticalAlign=middle;whiteSpace=wrap;rounded=0;fontColor=#000000;" vertex="1" parent="1">
          <mxGeometry x="445" y="290" width="150" height="30" as="geometry" />
        </mxCell>
        <mxCell id="tBd24EuEEKGatbLrbpey-8" value="&lt;div&gt;record voter3-c, partition : 3&lt;/div&gt;" style="text;html=1;align=center;verticalAlign=middle;whiteSpace=wrap;rounded=0;fontColor=#000000;" vertex="1" parent="1">
          <mxGeometry x="445" y="335" width="150" height="30" as="geometry" />
        </mxCell>
        <mxCell id="tBd24EuEEKGatbLrbpey-9" value="&lt;div&gt;record voter4-d, partition : 4&lt;/div&gt;" style="text;html=1;align=center;verticalAlign=middle;whiteSpace=wrap;rounded=0;fontColor=#000000;" vertex="1" parent="1">
          <mxGeometry x="445" y="377" width="150" height="30" as="geometry" />
        </mxCell>
        <mxCell id="tBd24EuEEKGatbLrbpey-10" value="&lt;div&gt;record voter5-e, partition : 6&lt;/div&gt;" style="text;html=1;align=center;verticalAlign=middle;whiteSpace=wrap;rounded=0;fontColor=#000000;" vertex="1" parent="1">
          <mxGeometry x="445" y="413" width="150" height="30" as="geometry" />
        </mxCell>
        <mxCell id="tBd24EuEEKGatbLrbpey-11" value="&lt;div&gt;record voter6-f, partition : 4&lt;/div&gt;" style="text;html=1;align=center;verticalAlign=middle;whiteSpace=wrap;rounded=0;fontColor=#000000;" vertex="1" parent="1">
          <mxGeometry x="445" y="453" width="150" height="30" as="geometry" />
        </mxCell>
      </root>
    </mxGraphModel>
  </diagram>
</mxfile>
